<svg baseProfile="tiny" height="100%" version="1.2" width="100%" xmlns="http://www.w3.org/2000/svg"
  xmlns:ev="http://www.w3.org/2001/xml-events" xmlns:xlink="http://www.w3.org/1999/xlink" viewBox="0 0 242 86">
  <rect fill="#ffffff" height="86" rx="2" ry="2" width="242" x="0" y="0" />
  <path transform="scale(2.2) translate(8, 20.3) rotate(-10)"
    d="M4.34 11.14C3.12667 11.14 2.20733 10.734 1.582 9.922C0.966 9.11 0.658 7.906 0.658 6.31V5.47C0.658 3.874 0.956667 2.67 1.554 1.858C2.15133 1.046 3.03333 0.64 4.2 0.64C4.52667 0.64 4.844 0.672666 5.152 0.737999C5.46 0.793999 5.73533 0.882666 5.978 1.004V4.42H4.858V1.172L5.418 2.04C5.06333 1.77867 4.648 1.648 4.172 1.648C3.39733 1.648 2.80933 1.97467 2.408 2.628C2.00667 3.28133 1.806 4.252 1.806 5.54V6.24C1.806 7.57467 2.02067 8.55933 2.45 9.194C2.88867 9.81933 3.556 10.132 4.452 10.132C4.704 10.132 4.96533 10.1087 5.236 10.062C5.50667 10.0153 5.754 9.95467 5.978 9.88V10.93C5.74467 10.9953 5.47867 11.0467 5.18 11.084C4.89067 11.1213 4.61067 11.14 4.34 11.14ZM10.5 11.14C9.53867 11.14 8.82933 10.86 8.372 10.3C7.924 9.73067 7.7 8.844 7.7 7.64V7.08C7.7 5.876 7.924 4.994 8.372 4.434C8.82933 3.86467 9.53867 3.58 10.5 3.58C11.4707 3.58 12.18 3.86467 12.628 4.434C13.076 4.994 13.3 5.876 13.3 7.08V7.64C13.3 8.844 13.076 9.73067 12.628 10.3C12.18 10.86 11.4707 11.14 10.5 11.14ZM10.5 10.16C11.1067 10.16 11.536 9.95933 11.788 9.558C12.0493 9.15667 12.18 8.494 12.18 7.57V7.15C12.18 6.226 12.0493 5.56333 11.788 5.162C11.536 4.76067 11.1067 4.56 10.5 4.56C9.90267 4.56 9.47333 4.76067 9.212 5.162C8.95067 5.56333 8.82 6.226 8.82 7.15V7.57C8.82 8.494 8.95067 9.15667 9.212 9.558C9.47333 9.95933 9.90267 10.16 10.5 10.16ZM14.42 11V4C14.6627 3.86 14.9287 3.75733 15.218 3.692C15.5073 3.61733 15.834 3.58 16.198 3.58C16.4967 3.58 16.7393 3.61267 16.926 3.678C17.1127 3.734 17.304 3.84133 17.5 4C17.7427 3.84133 17.9667 3.734 18.172 3.678C18.3867 3.61267 18.6433 3.58 18.942 3.58C19.5673 3.58 19.9967 3.72933 20.23 4.028C20.4633 4.31733 20.58 4.854 20.58 5.638V11H19.516V5.624C19.516 5.33467 19.4927 5.11533 19.446 4.966C19.3993 4.81667 19.32 4.714 19.208 4.658C19.096 4.59267 18.9327 4.56 18.718 4.56C18.578 4.56 18.452 4.57867 18.34 4.616C18.2373 4.65333 18.1347 4.70933 18.032 4.784V11H16.968V4.938C16.968 4.854 16.94 4.784 16.884 4.728C16.828 4.672 16.7487 4.63 16.646 4.602C16.5433 4.574 16.4173 4.56 16.268 4.56C15.9507 4.56 15.6893 4.63467 15.484 4.784V11H14.42ZM24.64 11V4.7H22.12V3.72H25.76V11H24.64ZM24.976 2.404C24.6773 2.404 24.4347 2.32 24.248 2.152C24.0707 1.97467 23.982 1.74133 23.982 1.452C23.982 1.15333 24.0707 0.919999 24.248 0.751999C24.4347 0.583999 24.6773 0.499999 24.976 0.499999C25.2747 0.499999 25.5127 0.583999 25.69 0.751999C25.8767 0.919999 25.97 1.15333 25.97 1.452C25.97 1.74133 25.8767 1.97467 25.69 2.152C25.5127 2.32 25.2747 2.404 24.976 2.404ZM28.882 4.028C29.2367 3.86933 29.6147 3.75733 30.016 3.692C30.4173 3.61733 30.87 3.58 31.374 3.58C32.0833 3.58 32.634 3.65933 33.026 3.818C33.4273 3.97667 33.7073 4.252 33.866 4.644C34.034 5.02667 34.118 5.55867 34.118 6.24V11H33.026V6.296C33.026 5.83867 32.9793 5.484 32.886 5.232C32.7927 4.98 32.6247 4.80733 32.382 4.714C32.1487 4.61133 31.8173 4.56 31.388 4.56C31.1733 4.56 30.9727 4.574 30.786 4.602C30.5993 4.63 30.4127 4.67667 30.226 4.742C30.0393 4.798 29.834 4.88667 29.61 5.008L29.974 4.308V11H28.882V4.028ZM36.162 13.1C37.4407 13.1 38.3833 12.8853 38.99 12.456C39.5967 12.036 39.9 11.3733 39.9 10.468V4.28L40.18 4.91C39.9093 4.77933 39.6433 4.69067 39.382 4.644C39.1207 4.588 38.8453 4.56 38.556 4.56C38.0987 4.56 37.7393 4.63467 37.478 4.784C37.2167 4.93333 37.03 5.19 36.918 5.554C36.8153 5.90867 36.764 6.40333 36.764 7.038C36.764 7.72867 36.82 8.27467 36.932 8.676C37.044 9.068 37.2353 9.348 37.506 9.516C37.7767 9.67467 38.15 9.754 38.626 9.754C38.906 9.754 39.1673 9.73067 39.41 9.684C39.662 9.628 39.928 9.55333 40.208 9.46L40.502 10.44C40.25 10.524 39.9793 10.594 39.69 10.65C39.4007 10.6967 39.0693 10.72 38.696 10.72C37.9587 10.72 37.366 10.5987 36.918 10.356C36.4793 10.1133 36.162 9.72133 35.966 9.18C35.77 8.63867 35.672 7.92 35.672 7.024C35.672 6.17467 35.7653 5.498 35.952 4.994C36.148 4.49 36.4653 4.13067 36.904 3.916C37.352 3.692 37.9447 3.58 38.682 3.58C39.5967 3.58 40.3667 3.72933 40.992 4.028V10.398C40.992 11.6393 40.5907 12.5633 39.788 13.17C38.9947 13.7767 37.786 14.08 36.162 14.08V13.1ZM52.248 11.14C51.8467 11.14 51.4687 11.1073 51.114 11.042C50.7687 10.986 50.4233 10.8927 50.078 10.762V9.768C50.442 9.89867 50.7967 9.99667 51.142 10.062C51.4967 10.1273 51.8513 10.16 52.206 10.16C52.8033 10.16 53.2467 10.0713 53.536 9.894C53.8253 9.71667 53.97 9.446 53.97 9.082C53.97 8.89533 53.9093 8.72733 53.788 8.578C53.676 8.42867 53.494 8.284 53.242 8.144C52.9993 8.004 52.6727 7.864 52.262 7.724C51.4127 7.45333 50.806 7.14533 50.442 6.8C50.0873 6.44533 49.91 5.99733 49.91 5.456C49.91 4.812 50.134 4.34067 50.582 4.042C51.0393 3.734 51.7487 3.58 52.71 3.58C53.0367 3.58 53.3633 3.60333 53.69 3.65C54.0167 3.68733 54.4133 3.76667 54.88 3.888V6.03H53.788V4.07L54.292 4.742C53.9467 4.66733 53.662 4.62067 53.438 4.602C53.214 4.574 52.9947 4.56 52.78 4.56C52.192 4.56 51.7533 4.63933 51.464 4.798C51.1747 4.94733 51.03 5.18067 51.03 5.498C51.03 5.67533 51.086 5.84333 51.198 6.002C51.31 6.15133 51.492 6.296 51.744 6.436C51.996 6.576 52.3367 6.72067 52.766 6.87C53.6247 7.15933 54.2267 7.47667 54.572 7.822C54.9173 8.158 55.09 8.59667 55.09 9.138C55.09 9.81 54.852 10.314 54.376 10.65C53.9093 10.9767 53.2 11.14 52.248 11.14ZM59.5 11.14C58.5387 11.14 57.8293 10.86 57.372 10.3C56.924 9.73067 56.7 8.844 56.7 7.64V7.08C56.7 5.876 56.924 4.994 57.372 4.434C57.8293 3.86467 58.5387 3.58 59.5 3.58C60.4707 3.58 61.18 3.86467 61.628 4.434C62.076 4.994 62.3 5.876 62.3 7.08V7.64C62.3 8.844 62.076 9.73067 61.628 10.3C61.18 10.86 60.4707 11.14 59.5 11.14ZM59.5 10.16C60.1067 10.16 60.536 9.95933 60.788 9.558C61.0493 9.15667 61.18 8.494 61.18 7.57V7.15C61.18 6.226 61.0493 5.56333 60.788 5.162C60.536 4.76067 60.1067 4.56 59.5 4.56C58.9027 4.56 58.4733 4.76067 58.212 5.162C57.9507 5.56333 57.82 6.226 57.82 7.15V7.57C57.82 8.494 57.9507 9.15667 58.212 9.558C58.4733 9.95933 58.9027 10.16 59.5 10.16ZM66.5 11.14C65.5387 11.14 64.8293 10.86 64.372 10.3C63.924 9.73067 63.7 8.844 63.7 7.64V7.08C63.7 5.876 63.924 4.994 64.372 4.434C64.8293 3.86467 65.5387 3.58 66.5 3.58C67.4707 3.58 68.18 3.86467 68.628 4.434C69.076 4.994 69.3 5.876 69.3 7.08V7.64C69.3 8.844 69.076 9.73067 68.628 10.3C68.18 10.86 67.4707 11.14 66.5 11.14ZM66.5 10.16C67.1067 10.16 67.536 9.95933 67.788 9.558C68.0493 9.15667 68.18 8.494 68.18 7.57V7.15C68.18 6.226 68.0493 5.56333 67.788 5.162C67.536 4.76067 67.1067 4.56 66.5 4.56C65.9027 4.56 65.4733 4.76067 65.212 5.162C64.9507 5.56333 64.82 6.226 64.82 7.15V7.57C64.82 8.494 64.9507 9.15667 65.212 9.558C65.4733 9.95933 65.9027 10.16 66.5 10.16ZM70.882 4.028C71.2367 3.86933 71.6147 3.75733 72.016 3.692C72.4173 3.61733 72.87 3.58 73.374 3.58C74.0833 3.58 74.634 3.65933 75.026 3.818C75.4273 3.97667 75.7073 4.252 75.866 4.644C76.034 5.02667 76.118 5.55867 76.118 6.24V11H75.026V6.296C75.026 5.83867 74.9793 5.484 74.886 5.232C74.7927 4.98 74.6247 4.80733 74.382 4.714C74.1487 4.61133 73.8173 4.56 73.388 4.56C73.1733 4.56 72.9727 4.574 72.786 4.602C72.5993 4.63 72.4127 4.67667 72.226 4.742C72.0393 4.798 71.834 4.88667 71.61 5.008L71.974 4.308V11H70.882V4.028ZM80.5 11.14C80.1733 11.14 79.9073 11.042 79.702 10.846C79.506 10.65 79.408 10.3933 79.408 10.076C79.408 9.74933 79.506 9.49267 79.702 9.306C79.9073 9.11 80.1733 9.012 80.5 9.012C80.8267 9.012 81.088 9.11 81.284 9.306C81.4893 9.49267 81.592 9.74933 81.592 10.076C81.592 10.3933 81.4893 10.65 81.284 10.846C81.088 11.042 80.8267 11.14 80.5 11.14ZM87.5 11.14C87.1733 11.14 86.9073 11.042 86.702 10.846C86.506 10.65 86.408 10.3933 86.408 10.076C86.408 9.74933 86.506 9.49267 86.702 9.306C86.9073 9.11 87.1733 9.012 87.5 9.012C87.8267 9.012 88.088 9.11 88.284 9.306C88.4893 9.49267 88.592 9.74933 88.592 10.076C88.592 10.3933 88.4893 10.65 88.284 10.846C88.088 11.042 87.8267 11.14 87.5 11.14ZM94.5 11.14C94.1733 11.14 93.9073 11.042 93.702 10.846C93.506 10.65 93.408 10.3933 93.408 10.076C93.408 9.74933 93.506 9.49267 93.702 9.306C93.9073 9.11 94.1733 9.012 94.5 9.012C94.8267 9.012 95.088 9.11 95.284 9.306C95.4893 9.49267 95.592 9.74933 95.592 10.076C95.592 10.3933 95.4893 10.65 95.284 10.846C95.088 11.042 94.8267 11.14 94.5 11.14Z"
    fill="#000000" />
  <path transform="scale(2.2) translate(7, 20) rotate(-10)"
    d="M4.34 11.14C3.12667 11.14 2.20733 10.734 1.582 9.922C0.966 9.11 0.658 7.906 0.658 6.31V5.47C0.658 3.874 0.956667 2.67 1.554 1.858C2.15133 1.046 3.03333 0.64 4.2 0.64C4.52667 0.64 4.844 0.672666 5.152 0.737999C5.46 0.793999 5.73533 0.882666 5.978 1.004V4.42H4.858V1.172L5.418 2.04C5.06333 1.77867 4.648 1.648 4.172 1.648C3.39733 1.648 2.80933 1.97467 2.408 2.628C2.00667 3.28133 1.806 4.252 1.806 5.54V6.24C1.806 7.57467 2.02067 8.55933 2.45 9.194C2.88867 9.81933 3.556 10.132 4.452 10.132C4.704 10.132 4.96533 10.1087 5.236 10.062C5.50667 10.0153 5.754 9.95467 5.978 9.88V10.93C5.74467 10.9953 5.47867 11.0467 5.18 11.084C4.89067 11.1213 4.61067 11.14 4.34 11.14ZM10.5 11.14C9.53867 11.14 8.82933 10.86 8.372 10.3C7.924 9.73067 7.7 8.844 7.7 7.64V7.08C7.7 5.876 7.924 4.994 8.372 4.434C8.82933 3.86467 9.53867 3.58 10.5 3.58C11.4707 3.58 12.18 3.86467 12.628 4.434C13.076 4.994 13.3 5.876 13.3 7.08V7.64C13.3 8.844 13.076 9.73067 12.628 10.3C12.18 10.86 11.4707 11.14 10.5 11.14ZM10.5 10.16C11.1067 10.16 11.536 9.95933 11.788 9.558C12.0493 9.15667 12.18 8.494 12.18 7.57V7.15C12.18 6.226 12.0493 5.56333 11.788 5.162C11.536 4.76067 11.1067 4.56 10.5 4.56C9.90267 4.56 9.47333 4.76067 9.212 5.162C8.95067 5.56333 8.82 6.226 8.82 7.15V7.57C8.82 8.494 8.95067 9.15667 9.212 9.558C9.47333 9.95933 9.90267 10.16 10.5 10.16ZM14.42 11V4C14.6627 3.86 14.9287 3.75733 15.218 3.692C15.5073 3.61733 15.834 3.58 16.198 3.58C16.4967 3.58 16.7393 3.61267 16.926 3.678C17.1127 3.734 17.304 3.84133 17.5 4C17.7427 3.84133 17.9667 3.734 18.172 3.678C18.3867 3.61267 18.6433 3.58 18.942 3.58C19.5673 3.58 19.9967 3.72933 20.23 4.028C20.4633 4.31733 20.58 4.854 20.58 5.638V11H19.516V5.624C19.516 5.33467 19.4927 5.11533 19.446 4.966C19.3993 4.81667 19.32 4.714 19.208 4.658C19.096 4.59267 18.9327 4.56 18.718 4.56C18.578 4.56 18.452 4.57867 18.34 4.616C18.2373 4.65333 18.1347 4.70933 18.032 4.784V11H16.968V4.938C16.968 4.854 16.94 4.784 16.884 4.728C16.828 4.672 16.7487 4.63 16.646 4.602C16.5433 4.574 16.4173 4.56 16.268 4.56C15.9507 4.56 15.6893 4.63467 15.484 4.784V11H14.42ZM24.64 11V4.7H22.12V3.72H25.76V11H24.64ZM24.976 2.404C24.6773 2.404 24.4347 2.32 24.248 2.152C24.0707 1.97467 23.982 1.74133 23.982 1.452C23.982 1.15333 24.0707 0.919999 24.248 0.751999C24.4347 0.583999 24.6773 0.499999 24.976 0.499999C25.2747 0.499999 25.5127 0.583999 25.69 0.751999C25.8767 0.919999 25.97 1.15333 25.97 1.452C25.97 1.74133 25.8767 1.97467 25.69 2.152C25.5127 2.32 25.2747 2.404 24.976 2.404ZM28.882 4.028C29.2367 3.86933 29.6147 3.75733 30.016 3.692C30.4173 3.61733 30.87 3.58 31.374 3.58C32.0833 3.58 32.634 3.65933 33.026 3.818C33.4273 3.97667 33.7073 4.252 33.866 4.644C34.034 5.02667 34.118 5.55867 34.118 6.24V11H33.026V6.296C33.026 5.83867 32.9793 5.484 32.886 5.232C32.7927 4.98 32.6247 4.80733 32.382 4.714C32.1487 4.61133 31.8173 4.56 31.388 4.56C31.1733 4.56 30.9727 4.574 30.786 4.602C30.5993 4.63 30.4127 4.67667 30.226 4.742C30.0393 4.798 29.834 4.88667 29.61 5.008L29.974 4.308V11H28.882V4.028ZM36.162 13.1C37.4407 13.1 38.3833 12.8853 38.99 12.456C39.5967 12.036 39.9 11.3733 39.9 10.468V4.28L40.18 4.91C39.9093 4.77933 39.6433 4.69067 39.382 4.644C39.1207 4.588 38.8453 4.56 38.556 4.56C38.0987 4.56 37.7393 4.63467 37.478 4.784C37.2167 4.93333 37.03 5.19 36.918 5.554C36.8153 5.90867 36.764 6.40333 36.764 7.038C36.764 7.72867 36.82 8.27467 36.932 8.676C37.044 9.068 37.2353 9.348 37.506 9.516C37.7767 9.67467 38.15 9.754 38.626 9.754C38.906 9.754 39.1673 9.73067 39.41 9.684C39.662 9.628 39.928 9.55333 40.208 9.46L40.502 10.44C40.25 10.524 39.9793 10.594 39.69 10.65C39.4007 10.6967 39.0693 10.72 38.696 10.72C37.9587 10.72 37.366 10.5987 36.918 10.356C36.4793 10.1133 36.162 9.72133 35.966 9.18C35.77 8.63867 35.672 7.92 35.672 7.024C35.672 6.17467 35.7653 5.498 35.952 4.994C36.148 4.49 36.4653 4.13067 36.904 3.916C37.352 3.692 37.9447 3.58 38.682 3.58C39.5967 3.58 40.3667 3.72933 40.992 4.028V10.398C40.992 11.6393 40.5907 12.5633 39.788 13.17C38.9947 13.7767 37.786 14.08 36.162 14.08V13.1ZM52.248 11.14C51.8467 11.14 51.4687 11.1073 51.114 11.042C50.7687 10.986 50.4233 10.8927 50.078 10.762V9.768C50.442 9.89867 50.7967 9.99667 51.142 10.062C51.4967 10.1273 51.8513 10.16 52.206 10.16C52.8033 10.16 53.2467 10.0713 53.536 9.894C53.8253 9.71667 53.97 9.446 53.97 9.082C53.97 8.89533 53.9093 8.72733 53.788 8.578C53.676 8.42867 53.494 8.284 53.242 8.144C52.9993 8.004 52.6727 7.864 52.262 7.724C51.4127 7.45333 50.806 7.14533 50.442 6.8C50.0873 6.44533 49.91 5.99733 49.91 5.456C49.91 4.812 50.134 4.34067 50.582 4.042C51.0393 3.734 51.7487 3.58 52.71 3.58C53.0367 3.58 53.3633 3.60333 53.69 3.65C54.0167 3.68733 54.4133 3.76667 54.88 3.888V6.03H53.788V4.07L54.292 4.742C53.9467 4.66733 53.662 4.62067 53.438 4.602C53.214 4.574 52.9947 4.56 52.78 4.56C52.192 4.56 51.7533 4.63933 51.464 4.798C51.1747 4.94733 51.03 5.18067 51.03 5.498C51.03 5.67533 51.086 5.84333 51.198 6.002C51.31 6.15133 51.492 6.296 51.744 6.436C51.996 6.576 52.3367 6.72067 52.766 6.87C53.6247 7.15933 54.2267 7.47667 54.572 7.822C54.9173 8.158 55.09 8.59667 55.09 9.138C55.09 9.81 54.852 10.314 54.376 10.65C53.9093 10.9767 53.2 11.14 52.248 11.14ZM59.5 11.14C58.5387 11.14 57.8293 10.86 57.372 10.3C56.924 9.73067 56.7 8.844 56.7 7.64V7.08C56.7 5.876 56.924 4.994 57.372 4.434C57.8293 3.86467 58.5387 3.58 59.5 3.58C60.4707 3.58 61.18 3.86467 61.628 4.434C62.076 4.994 62.3 5.876 62.3 7.08V7.64C62.3 8.844 62.076 9.73067 61.628 10.3C61.18 10.86 60.4707 11.14 59.5 11.14ZM59.5 10.16C60.1067 10.16 60.536 9.95933 60.788 9.558C61.0493 9.15667 61.18 8.494 61.18 7.57V7.15C61.18 6.226 61.0493 5.56333 60.788 5.162C60.536 4.76067 60.1067 4.56 59.5 4.56C58.9027 4.56 58.4733 4.76067 58.212 5.162C57.9507 5.56333 57.82 6.226 57.82 7.15V7.57C57.82 8.494 57.9507 9.15667 58.212 9.558C58.4733 9.95933 58.9027 10.16 59.5 10.16ZM66.5 11.14C65.5387 11.14 64.8293 10.86 64.372 10.3C63.924 9.73067 63.7 8.844 63.7 7.64V7.08C63.7 5.876 63.924 4.994 64.372 4.434C64.8293 3.86467 65.5387 3.58 66.5 3.58C67.4707 3.58 68.18 3.86467 68.628 4.434C69.076 4.994 69.3 5.876 69.3 7.08V7.64C69.3 8.844 69.076 9.73067 68.628 10.3C68.18 10.86 67.4707 11.14 66.5 11.14ZM66.5 10.16C67.1067 10.16 67.536 9.95933 67.788 9.558C68.0493 9.15667 68.18 8.494 68.18 7.57V7.15C68.18 6.226 68.0493 5.56333 67.788 5.162C67.536 4.76067 67.1067 4.56 66.5 4.56C65.9027 4.56 65.4733 4.76067 65.212 5.162C64.9507 5.56333 64.82 6.226 64.82 7.15V7.57C64.82 8.494 64.9507 9.15667 65.212 9.558C65.4733 9.95933 65.9027 10.16 66.5 10.16ZM70.882 4.028C71.2367 3.86933 71.6147 3.75733 72.016 3.692C72.4173 3.61733 72.87 3.58 73.374 3.58C74.0833 3.58 74.634 3.65933 75.026 3.818C75.4273 3.97667 75.7073 4.252 75.866 4.644C76.034 5.02667 76.118 5.55867 76.118 6.24V11H75.026V6.296C75.026 5.83867 74.9793 5.484 74.886 5.232C74.7927 4.98 74.6247 4.80733 74.382 4.714C74.1487 4.61133 73.8173 4.56 73.388 4.56C73.1733 4.56 72.9727 4.574 72.786 4.602C72.5993 4.63 72.4127 4.67667 72.226 4.742C72.0393 4.798 71.834 4.88667 71.61 5.008L71.974 4.308V11H70.882V4.028ZM80.5 11.14C80.1733 11.14 79.9073 11.042 79.702 10.846C79.506 10.65 79.408 10.3933 79.408 10.076C79.408 9.74933 79.506 9.49267 79.702 9.306C79.9073 9.11 80.1733 9.012 80.5 9.012C80.8267 9.012 81.088 9.11 81.284 9.306C81.4893 9.49267 81.592 9.74933 81.592 10.076C81.592 10.3933 81.4893 10.65 81.284 10.846C81.088 11.042 80.8267 11.14 80.5 11.14ZM87.5 11.14C87.1733 11.14 86.9073 11.042 86.702 10.846C86.506 10.65 86.408 10.3933 86.408 10.076C86.408 9.74933 86.506 9.49267 86.702 9.306C86.9073 9.11 87.1733 9.012 87.5 9.012C87.8267 9.012 88.088 9.11 88.284 9.306C88.4893 9.49267 88.592 9.74933 88.592 10.076C88.592 10.3933 88.4893 10.65 88.284 10.846C88.088 11.042 87.8267 11.14 87.5 11.14ZM94.5 11.14C94.1733 11.14 93.9073 11.042 93.702 10.846C93.506 10.65 93.408 10.3933 93.408 10.076C93.408 9.74933 93.506 9.49267 93.702 9.306C93.9073 9.11 94.1733 9.012 94.5 9.012C94.8267 9.012 95.088 9.11 95.284 9.306C95.4893 9.49267 95.592 9.74933 95.592 10.076C95.592 10.3933 95.4893 10.65 95.284 10.846C95.088 11.042 94.8267 11.14 94.5 11.14Z"
    fill="#c0c0c0" />
</svg>